<?xml version="1.0" encoding="UTF-8" standalone="no"?>
<!-- Created with Inkscape (http://www.inkscape.org/) -->

<svg
   xmlns:dc="http://purl.org/dc/elements/1.1/"
   xmlns:cc="http://creativecommons.org/ns#"
   xmlns:rdf="http://www.w3.org/1999/02/22-rdf-syntax-ns#"
   xmlns:svg="http://www.w3.org/2000/svg"
   xmlns="http://www.w3.org/2000/svg"
   xmlns:sodipodi="http://sodipodi.sourceforge.net/DTD/sodipodi-0.dtd"
   xmlns:inkscape="http://www.inkscape.org/namespaces/inkscape"
   width="125mm"
   height="124mm"
   viewBox="0 0 442.91314 439.36981"
   id="svg4412"
   version="1.1"
   inkscape:version="0.91 r13725"
   sodipodi:docname="Icon.svg">
  <defs
     id="defs4414" />
  <sodipodi:namedview
     id="base"
     pagecolor="#ffffff"
     bordercolor="#666666"
     borderopacity="1.0"
     inkscape:pageopacity="0.0"
     inkscape:pageshadow="2"
     inkscape:zoom="0.98994949"
     inkscape:cx="79.169721"
     inkscape:cy="283.80097"
     inkscape:document-units="px"
     inkscape:current-layer="layer1"
     showgrid="false"
     inkscape:window-width="1920"
     inkscape:window-height="1017"
     inkscape:window-x="-8"
     inkscape:window-y="-8"
     inkscape:window-maximized="1" />
  <metadata
     id="metadata4417">
    <rdf:RDF>
      <cc:Work
         rdf:about="">
        <dc:format>image/svg+xml</dc:format>
        <dc:type
           rdf:resource="http://purl.org/dc/dcmitype/StillImage" />
        <dc:title></dc:title>
      </cc:Work>
    </rdf:RDF>
  </metadata>
  <g
     inkscape:label="Layer 1"
     inkscape:groupmode="layer"
     id="layer1"
     transform="translate(0,-612.9923)">
    <path
       inkscape:connector-curvature="0"
       id="path4146"
       d="m 8.708811,895.68587 c 430.257489,0 430.257489,0 430.257489,0"
       style="display:inline;fill:none;fill-rule:evenodd;stroke:#7f7d7d;stroke-width:8;stroke-linecap:butt;stroke-linejoin:miter;stroke-miterlimit:4;stroke-dasharray:none;stroke-opacity:1" />
    <path
       style="display:inline;fill:none;fill-rule:evenodd;stroke:#7f7d7d;stroke-width:8;stroke-linecap:butt;stroke-linejoin:miter;stroke-miterlimit:4;stroke-dasharray:none;stroke-opacity:1"
       d="m 8.708811,776.48787 c 430.257489,0 430.257489,0 430.257489,0"
       id="path4176"
       inkscape:connector-curvature="0" />
    <path
       inkscape:connector-curvature="0"
       id="path4178"
       d="m 164.23851,618.93785 c 0,430.25745 0,430.25745 0,430.25745"
       style="display:inline;fill:none;fill-rule:evenodd;stroke:#7f7d7d;stroke-width:8;stroke-linecap:butt;stroke-linejoin:miter;stroke-miterlimit:4;stroke-dasharray:none;stroke-opacity:1" />
    <path
       style="display:inline;fill:none;fill-rule:evenodd;stroke:#7f7d7d;stroke-width:8;stroke-linecap:butt;stroke-linejoin:miter;stroke-miterlimit:4;stroke-dasharray:none;stroke-opacity:1"
       d="m 274.59768,618.93785 c 0,430.25745 0,430.25745 0,430.25745"
       id="path4180"
       inkscape:connector-curvature="0" />
    <path
       inkscape:connector-curvature="0"
       id="path4182"
       d="m 391.3834,733.93784 c 0,206.686 0,206.686 0,206.686"
       style="display:inline;fill:none;fill-rule:evenodd;stroke:#7f7d7d;stroke-width:8;stroke-linecap:butt;stroke-linejoin:miter;stroke-miterlimit:4;stroke-dasharray:none;stroke-opacity:1" />
    <path
       inkscape:connector-curvature="0"
       id="path4186"
       d="m 54.24054,734.50973 c 0,206.686 0,206.686 0,206.686"
       style="display:inline;fill:none;fill-rule:evenodd;stroke:#7f7d7d;stroke-width:8;stroke-linecap:butt;stroke-linejoin:miter;stroke-miterlimit:4;stroke-dasharray:none;stroke-opacity:1" />
    <path
       style="display:inline;fill:none;fill-rule:evenodd;stroke:#7f7d7d;stroke-width:8;stroke-linecap:butt;stroke-linejoin:miter;stroke-miterlimit:4;stroke-dasharray:none;stroke-opacity:1"
       d="m 322.58357,667.85273 c -206.68604,0 -206.68604,0 -206.68604,0"
       id="path4188"
       inkscape:connector-curvature="0" />
    <path
       inkscape:connector-curvature="0"
       id="path4190"
       d="m 322.58357,1001.2508 c -206.68604,0 -206.68604,0 -206.68604,0"
       style="display:inline;fill:none;fill-rule:evenodd;stroke:#7f7d7d;stroke-width:8;stroke-linecap:butt;stroke-linejoin:miter;stroke-miterlimit:4;stroke-dasharray:none;stroke-opacity:1" />
    <path
       style="display:inline;opacity:0.35300066;fill:#dbd7d2;fill-opacity:0.59281437;stroke:none;stroke-width:8;stroke-miterlimit:4;stroke-dasharray:none;stroke-opacity:1"
       d="m 168.6078,948.63922 0,-48.57143 50.71429,0 50.71429,0 0,48.57143 0,48.57143 -50.71429,0 -50.71429,0 0,-48.57143 z"
       id="path4338"
       inkscape:connector-curvature="0" />
    <path
       style="display:inline;opacity:0.35300066;fill:#dbd7d2;fill-opacity:1;stroke:none;stroke-width:8;stroke-miterlimit:4;stroke-dasharray:none;stroke-opacity:1"
       d="m 278.60777,836.13922 0,-55.35714 54.2858,0 54.28573,0 0,55.35714 0,55.35715 -54.28573,0 -54.2858,0 0,-55.35715 z"
       id="path4348"
       inkscape:connector-curvature="0" />
    <path
       style="display:inline;opacity:0.35300066;fill:#dbd7d2;fill-opacity:1;stroke:none;stroke-width:8;stroke-miterlimit:4;stroke-dasharray:none;stroke-opacity:1"
       d="m 168.6078,722.21065 0,-50 50.71429,0 50.71429,0 0,50 0,50 -50.71429,0 -50.71429,0 0,-50 z"
       id="path4350"
       inkscape:connector-curvature="0" />
    <path
       style="display:inline;opacity:0.35300066;fill:#dbd7d2;fill-opacity:1;stroke:none;stroke-width:8;stroke-miterlimit:4;stroke-dasharray:none;stroke-opacity:1"
       d="m 58.60781,836.13922 0,-55.35714 50.71428,0 50.71429,0 0,55.35714 0,55.35715 -50.71429,0 -50.71428,0 0,-55.35715 z"
       id="path4352"
       inkscape:connector-curvature="0" />
    <path
       style="display:inline;opacity:0.35300066;fill:#dbd7d2;fill-opacity:1;stroke:none;stroke-width:8;stroke-miterlimit:4;stroke-dasharray:none;stroke-opacity:1"
       d="m 168.6078,948.63922 0,-48.57143 50.71429,0 50.71429,0 0,48.57143 0,48.57143 -50.71429,0 -50.71429,0 0,-48.57143 z"
       id="path4354"
       inkscape:connector-curvature="0" />
    <path
       style="display:inline;opacity:0.35300066;fill:#dbd7d2;fill-opacity:1;stroke:none;stroke-width:8;stroke-miterlimit:4;stroke-dasharray:none;stroke-opacity:1"
       d="m 278.94977,836.24735 0,-55.05332 54.0432,0 54.04313,0 0,55.05332 0,55.05331 -54.04313,0 -54.0432,0 0,-55.05331 z"
       id="path4367"
       inkscape:connector-curvature="0" />
    <path
       style="display:inline;opacity:0.35300066;fill:#dbd7d2;fill-opacity:1;stroke:none;stroke-width:8;stroke-miterlimit:4;stroke-dasharray:none;stroke-opacity:1"
       d="m 168.84314,722.10011 0,-50.00255 50.50763,0 50.50762,0 0,50.00255 0,50.00255 -50.50762,0 -50.50763,0 0,-50.00255 z"
       id="path4369"
       inkscape:connector-curvature="0" />
    <path
       style="display:inline;opacity:0.35300066;fill:#dbd7d2;fill-opacity:1;stroke:none;stroke-width:8;stroke-miterlimit:4;stroke-dasharray:none;stroke-opacity:1"
       d="m 58.73652,836.24735 0,-55.05332 50.50762,0 50.50763,0 0,55.05332 0,55.05331 -50.50763,0 -50.50762,0 0,-55.05331 z"
       id="path4371"
       inkscape:connector-curvature="0" />
    <path
       style="display:inline;opacity:0.35300066;fill:#dbd7d2;fill-opacity:1;stroke:none;stroke-width:8;stroke-miterlimit:4;stroke-dasharray:none;stroke-opacity:1"
       d="m 168.84314,948.87936 0,-48.48733 50.50763,0 50.50762,0 0,48.48733 0,48.48732 -50.50762,0 -50.50763,0 0,-48.48732 z"
       id="path4373"
       inkscape:connector-curvature="0" />
  </g>
</svg>
